<svg version="1.0" xmlns="http://www.w3.org/2000/svg" width="800.000000" height="800.000000" viewBox="0 0 800.000000 800.000000" preserveAspectRatio="xMidYMid meet">
  <metadata>
    <rdf:RDF xmlns:rdf="http://www.w3.org/1999/02/22-rdf-syntax-ns#" xmlns:rdfs="http://www.w3.org/2000/01/rdf-schema#" xmlns:dc="http://purl.org/dc/elements/1.1/">
      <rdf:Description dc:format="image/svg+xml" dc:Label="1" dc:ContentProducer="001191330110MACRLGPT8B00000" dc:ProduceID="378017980" dc:ReservedCode1="NJrbREMJlB/JziUaFW6HSCWPaLdbRpRZ7h76VQR2Obc=" dc:ContentPropagator="001191330110MACRLGPT8B00000" dc:PropagateID="378017980" dc:ReservedCode2="NJrbREMJlB/JziUaFW6HSCWPaLdbRpRZ7h76VQR2Obc="/>
    </rdf:RDF>
  </metadata>
  <g transform="translate(0.000000,800.000000) scale(0.100000,-0.100000)" fill="#000000" stroke="none">
    <path d="M3675 6136 c-278 -41 -550 -156 -754 -321 -82 -66 -224 -212 -278 -285 -293 -404 -378 -908 -232 -1385 79 -258 243 -512 443 -688 94 -82 99 -88 116 -142 6 -22 29 -69 50 -105 68 -116 480 -742 527 -799 85 -105 190 -182 347 -257 124 -58 238 -90 402 -110 157 -20 283 -12 429 26 221 57 428 212 526 393 118 217 134 344 125 949 -6 449 -8 461 -62 539 -26 37 -27 43 -15 72 77 188 113 376 113 592 1 417 -148 781 -442 1076 -223 224 -485 364 -803 430 -130 26 -365 34 -492 15z m475 -191 c411 -91 762 -359 943 -720 88 -177 132 -345 144 -543 10 -180 -27 -413 -87 -557 l-21 -50 -72 -1 c-44 0 -87 -7 -111 -18 -39 -16 -40 -16 -65 8 -29 27 -103 66 -125 66 -26 0 -26 15 4 93 102 262 99 541 -8 794 -39 93 -70 127 -115 127 -39 0 -74 -24 -88 -62 -7 -17 1 -45 31 -115 64 -151 83 -249 77 -392 -7 -142 -29 -231 -88 -358 -24 -51 -44 -94 -46 -96 -1 -2 -20 12 -41 31 -56 51 -117 71 -197 66 l-65 -4 0 236 c0 261 -8 309 -61 386 -35 52 -77 88 -143 122 -45 23 -63 26 -146 27 -85 0 -101 -3 -150 -28 -91 -47 -143 -107 -192 -222 -10 -22 -14 -145 -18 -468 l-5 -438 -120 137 c-66 75 -128 140 -137 145 -51 28 -128 -20 -128 -79 0 -32 18 -58 105 -152 l50 -55 -46 -6 c-26 -4 -64 -15 -84 -25 -53 -25 -129 -104 -151 -158 -11 -25 -22 -46 -26 -46 -14 0 -153 160 -209 243 -171 248 -247 516 -236 827 8 219 43 361 136 555 129 267 379 510 653 634 88 40 258 92 353 107 106 18 384 11 485 -11z m-174 -1170 c17 -13 40 -41 50 -62 17 -35 19 -63 18 -338 -1 -165 -4 -368 -9 -452 -8 -164 -5 -193 25 -223 26 -26 87 -26 120 0 24 18 25 22 22 127 -3 150 3 180 42 204 50 30 83 25 128 -21 l38 -41 0 -135 c0 -130 1 -136 25 -159 34 -35 88 -34 120 1 23 25 25 35 25 121 0 105 7 126 50 148 39 20 79 19 114 -4 48 -32 55 -56 56 -179 0 -62 5 -122 11 -134 15 -28 72 -50 101 -39 49 19 59 43 65 153 6 95 8 105 34 130 55 56 154 17 180 -70 7 -26 9 -184 6 -507 -3 -384 -7 -484 -21 -545 -32 -146 -125 -298 -233 -379 -73 -55 -200 -116 -284 -136 -240 -57 -559 -5 -783 128 -113 67 -184 141 -299 315 -389 586 -448 683 -455 751 -11 118 77 221 188 221 82 0 116 -32 258 -248 55 -84 104 -153 109 -152 4 0 10 325 13 723 l5 724 28 36 c16 21 39 45 53 54 57 37 142 32 200 -12z"/>
    <path d="M3680 5554 c-294 -64 -529 -243 -660 -504 -87 -172 -121 -360 -101 -552 7 -61 18 -125 25 -143 28 -66 118 -68 152 -2 13 24 14 40 5 91 -56 320 75 643 328 816 141 95 265 133 441 134 136 0 235 -23 356 -85 42 -21 89 -39 105 -39 64 0 102 83 63 138 -31 45 -212 119 -354 146 -100 19 -272 19 -360 0z"/>
  </g>
</svg>