<?xml version="1.0" standalone="no"?><!DOCTYPE svg PUBLIC "-//W3C//DTD SVG 1.1//EN" "http://www.w3.org/Graphics/SVG/1.1/DTD/svg11.dtd"><svg t="1772125207158" class="icon" viewBox="0 0 1024 1024" version="1.1" xmlns="http://www.w3.org/2000/svg" p-id="5816" xmlns:xlink="http://www.w3.org/1999/xlink" width="200" height="200"><path d="M383.3 96.6c17.6 0 31.9 14.4 31.9 31.9V384c0 17.6-14.4 31.9-31.9 31.9H127.8c-17.6 0-31.9-14.4-31.9-31.9V128.5c0-17.6 14.4-31.9 31.9-31.9h255.5m0-63.9H127.8C75 32.7 32 75.7 32 128.5V384c0 52.8 43 95.8 95.8 95.8h255.5c52.8 0 95.8-43 95.8-95.8V128.5c0-52.8-43-95.8-95.8-95.8zM896.2 96.6c17.6 0 31.9 14.4 31.9 31.9V384c0 17.6-14.4 31.9-31.9 31.9H640.7c-17.6 0-31.9-14.4-31.9-31.9V128.5c0-17.6 14.4-31.9 31.9-31.9h255.5m0-63.9H640.7c-52.8 0-95.8 43-95.8 95.8V384c0 52.8 43 95.8 95.8 95.8h255.5c52.8 0 95.8-43 95.8-95.8V128.5c0-52.8-43-95.8-95.8-95.8zM383.3 608.1c17.6 0 31.9 14.4 31.9 31.9v255.5c0 17.6-14.4 31.9-31.9 31.9H127.8c-17.6 0-31.9-14.4-31.9-31.9V640c0-17.6 14.4-31.9 31.9-31.9h255.5m0-63.9H127.8C75 544.2 32 587.2 32 640v255.5c0 52.8 43 95.8 95.8 95.8h255.5c52.8 0 95.8-43 95.8-95.8V640c0-52.8-43-95.8-95.8-95.8zM896.2 608.1c17.6 0 31.9 14.4 31.9 31.9v255.5c0 17.6-14.4 31.9-31.9 31.9H640.7c-17.6 0-31.9-14.4-31.9-31.9V640c0-17.6 14.4-31.9 31.9-31.9h255.5m0-63.9H640.7c-52.8 0-95.8 43-95.8 95.8v255.5c0 52.8 43 95.8 95.8 95.8h255.5c52.8 0 95.8-43 95.8-95.8V640c0-52.8-43-95.8-95.8-95.8z" p-id="5817"></path></svg>