<?xml version="1.0" standalone="no"?><!DOCTYPE svg PUBLIC "-//W3C//DTD SVG 1.1//EN" "http://www.w3.org/Graphics/SVG/1.1/DTD/svg11.dtd"><svg t="1772121534833" class="icon" viewBox="0 0 1024 1024" version="1.1" xmlns="http://www.w3.org/2000/svg" p-id="14363" data-spm-anchor-id="a313x.search_index.0.i3.35ed3a81ZEu0VV" xmlns:xlink="http://www.w3.org/1999/xlink" width="200" height="200"><path d="M680.533 102.101L921.9 343.467a42.667 42.667 0 0 1 0 60.33L589.995 735.701l-90.454 30.166-60.373 60.33a42.667 42.667 0 0 1-60.33 0L197.802 645.163a42.667 42.667 0 0 1 0-60.331l60.33-60.33 30.166-90.497 331.904-331.904a42.667 42.667 0 0 1 60.33 0z m30.166 150.87L439.168 524.5l60.33 60.331 271.531-271.53-60.33-60.331z m-528 467.626l120.704 120.704-60.331 60.331-181.035-60.33L182.7 720.596z" fill="#1296db" p-id="14364" data-spm-anchor-id="a313x.search_index.0.i2.35ed3a81ZEu0VV" class="selected"></path></svg>