<svg
    version="1.0"
    xmlns="http://www.w3.org/2000/svg"
    width="800.000000"
    height="800.000000"
    viewBox="111 126 579 558"
    preserveAspectRatio="xMidYMid meet"
>
  <metadata>
    <rdf:RDF
            xmlns:rdf="http://www.w3.org/1999/02/22-rdf-syntax-ns#"
            xmlns:rdfs="http://www.w3.org/2000/01/rdf-schema#"
            xmlns:dc="http://purl.org/dc/elements/1.1/"
        >
      <rdf:Description
                dc:format="image/svg+xml"
                dc:Label="1"
                dc:ContentProducer="001191330110MACRLGPT8B00000"
                dc:ProduceID="378017926"
                dc:ReservedCode1="Z1rYwfVwFpYBsyIgQLjE3E5Z3U3ZOWztPd+nNsjexvU="
                dc:ContentPropagator="001191330110MACRLGPT8B00000"
                dc:PropagateID="378017926"
                dc:ReservedCode2="Z1rYwfVwFpYBsyIgQLjE3E5Z3U3ZOWztPd+nNsjexvU="
            />
    </rdf:RDF>
  </metadata>
  <g
        transform="translate(0.000000,800.000000) scale(0.100000,-0.100000)"
        fill="#000"
        stroke="none"
    >
    <path
            d="M2000 5949 c-63 -28 -118 -84 -151 -154 l-29 -60 0 -1497 c0 -1475 0 -1498 20 -1551 23 -62 88 -134 143 -160 21 -10 63 -22 95 -27 31 -5 437 -8 902 -8 l845 1 3 -182 2 -182 87 3 86 3 -2 177 -2 178 533 0 c293 0 695 1 893 3 344 2 362 3 406 23 67 31 124 87 156 152 l28 57 0 1505 0 1505 -26 56 c-31 66 -88 126 -144 154 -39 19 -64 20 -710 20 -607 0 -676 -2 -735 -18 -85 -22 -233 -96 -290 -144 -70 -58 -147 -150 -171 -204 -13 -27 -25 -49 -29 -49 -3 0 -15 20 -27 43 -70 145 -245 280 -448 348 l-70 24 -660 2 c-647 3 -661 3 -705 -18z m1370 -172 c211 -63 366 -215 436 -427 18 -52 19 -126 22 -1367 l3 -1313 -871 0 c-941 0 -907 -2 -944 52 -14 20 -16 178 -16 1509 l0 1487 27 32 c14 18 36 36 47 41 12 4 296 7 631 6 534 -3 617 -5 665 -20z m2400 5 c20 -10 42 -32 52 -52 17 -33 18 -125 18 -1493 0 -1583 3 -1500 -55 -1545 l-28 -22 -878 0 -879 0 0 1283 c0 844 4 1304 11 1346 14 92 64 203 120 274 96 119 229 194 383 217 28 4 314 8 636 9 538 1 588 0 620 -17z"
        />
    <path d="M4420 4571 l0 -91 460 0 460 0 0 88 0 87 -460 3 -460 3 0 -90z" />
    <path
            d="M4420 3910 l0 -90 459 0 459 0 4 58 c1 31 2 72 0 90 l-3 32 -460 0 -459 0 0 -90z"
        />
  </g>
</svg>
