<?xml version="1.0" standalone="no"?><!DOCTYPE svg PUBLIC "-//W3C//DTD SVG 1.1//EN" "http://www.w3.org/Graphics/SVG/1.1/DTD/svg11.dtd"><svg t="1772113870739" class="icon" viewBox="0 0 1024 1024" version="1.1" xmlns="http://www.w3.org/2000/svg" p-id="14399" xmlns:xlink="http://www.w3.org/1999/xlink" width="200" height="200"><path d="M632.451326 156.178015c-1.663896-1.663896-3.326768-2.664689-3.660366-2.330068l-52.737108 52.80874c-0.331551 0.331551 0.666172 1.998517 2.328022 3.664459l234.408751 234.555084c1.663896 1.665942 3.328815 2.664689 3.660366 2.332115l52.737108-52.80874c0.332575-0.333598-0.666172-2.000564-2.328022-3.664459L632.451326 156.178015zM931.906535 198.491727 823.271326 89.709161c-27.284413-27.321252-66.711378-34.148751-96.325859-18.989493-6.15621 3.163039-11.977799 7.328919-17.135262 12.493545L677.370375 115.698069c-2.330068 2.332115-4.491291 4.832052-6.323009 7.496741 0.331551 0.499373 0.832971 0.99977 1.330298 1.499144l224.594221 224.89405c0.499373 0.50142 0.997724 0.99977 1.497097 1.332345 2.662643-1.998517 5.157463-3.997034 7.486508-6.329149l32.441876-32.484855c5.157463-5.163603 9.315156-10.996448 12.477172-17.157775C966.013331 265.294179 959.357747 225.811955 931.906535 198.491727zM730.441081 434.548c-0.333598-0.333598-2.829442 1.497097-5.492084 4.330632L350.960257 813.703413c-0.164752 0.164752-8.484232 4.996804-8.648984 5.161556 0 0-143.907551 41.814338-147.56587 42.148959-2.994194 0.166799-18.300808-17.159822-18.300808-17.159822s-14.307867-12.827143-14.307867-15.82543c0-3.163039 45.75202-157.257603 45.75202-157.257603l372.158045-374.99158c2.662643-2.664689 4.659113-5.163603 4.324492-5.498224l-46.416146-46.477544c-0.331551-0.333598-2.827395 1.665942-5.490038 4.332678L153.652496 627.456568c-0.331551 0.333598-5.323239 5.331425-5.821589 7.328919l-79.688947 268.873704c-3.493567 5.498224-5.656837 12.160971-5.656837 19.325138 0 19.989263 16.137539 36.149315 36.100196 36.149315 6.822382 0 12.977569-1.833765 18.467607-5.163603 0.664126 0.164752 1.829671 0 3.160993-0.50142 0 0 257.366625-75.464739 261.526365-78.794577l14.141068-7.66354c-1.499144 5.331425 379.811352-377.154849 379.811352-377.154849 2.660596-2.666736 4.657067-5.16565 4.324492-5.498224L730.441081 434.548zM241.4931 713.083761l50.573839 11.328c2.49789 0.997724 4.493338 3.166109 5.157463 5.996574 0 0.332575 0.166799 0.666172 0.166799 1.165546l6.65456 43.646056c0.997724-0.499373 2.827395-1.998517 4.657067-3.831258L682.69259 396.899542c2.827395-2.833535 4.659113-5.331425 4.15974-5.831822l-61.720713-61.803601c-0.50142-0.499373-2.994194 1.332345-5.656837 3.999081L245.48604 707.920158C243.322771 710.083427 241.825674 712.083991 241.4931 713.083761z" fill="#272536" p-id="14400"></path></svg>