<svg
    version="1.0"
    xmlns="http://www.w3.org/2000/svg"
    width="800.000000"
    height="800.000000"
    viewBox="158 105 456 572"
    preserveAspectRatio="xMidYMid meet"
>
  <metadata>
    <rdf:RDF
            xmlns:rdf="http://www.w3.org/1999/02/22-rdf-syntax-ns#"
            xmlns:rdfs="http://www.w3.org/2000/01/rdf-schema#"
            xmlns:dc="http://purl.org/dc/elements/1.1/"
        >
      <rdf:Description
                dc:format="image/svg+xml"
                dc:Label="1"
                dc:ContentProducer="001191330110MACRLGPT8B00000"
                dc:ProduceID="378016877"
                dc:ReservedCode1="R8nHXRQxIZGNeuMKTt9qCoteMCGkTfJyYKui7qmdkwk="
                dc:ContentPropagator="001191330110MACRLGPT8B00000"
                dc:PropagateID="378016877"
                dc:ReservedCode2="R8nHXRQxIZGNeuMKTt9qCoteMCGkTfJyYKui7qmdkwk="
            />
    </rdf:RDF>
  </metadata>
  <g
        transform="translate(0.000000,800.000000) scale(0.100000,-0.100000)"
        fill="#000000"
        stroke="none"
    >
    <path
            d="M4885 6189 c-163 -20 -239 -66 -471 -286 -106 -101 -196 -187 -199 -193 -3 -5 184 -199 417 -430 l422 -420 207 208 c178 178 212 217 242 277 84 170 83 349 -2 521 -75 150 -246 284 -401 312 -86 16 -150 19 -215 11z m173 -184 c84 -20 128 -44 195 -105 100 -91 152 -237 129 -357 -23 -113 -60 -170 -202 -305 l-129 -124 -295 295 -294 296 124 115 c134 124 189 161 274 184 71 19 120 19 198 1z"
        />
    <path
            d="M3464 4983 c-350 -345 -655 -652 -678 -682 -136 -181 -261 -433 -318 -645 -32 -116 -33 -321 -2 -386 73 -156 244 -188 554 -103 117 32 296 107 415 175 228 129 221 123 893 792 l633 631 -425 423 c-234 232 -428 422 -431 422 -3 0 -292 -282 -641 -627z m946 78 l301 -294 -571 -566 c-494 -488 -584 -574 -662 -623 -262 -167 -560 -277 -746 -278 -53 0 -67 4 -87 24 -69 69 -23 308 115 591 106 218 148 271 451 567 151 147 411 405 579 572 168 168 308 305 312 303 4 -1 142 -134 308 -296z"
        />
    <path
            d="M2132 2690 c-114 -58 -172 -153 -172 -286 0 -70 4 -89 31 -142 35 -72 94 -124 168 -153 49 -18 100 -19 1700 -19 1647 0 1649 0 1705 20 67 26 133 86 166 155 21 42 25 65 25 140 0 75 -4 98 -24 139 -31 63 -84 116 -147 147 l-49 24 -1671 3 -1670 2 -62 -30z m3364 -154 c12 -3 36 -22 53 -41 27 -31 31 -43 31 -92 0 -51 -3 -58 -39 -94 l-39 -39 -1637 0 c-1541 0 -1639 1 -1667 18 -34 19 -68 78 -68 118 0 30 25 88 46 105 41 34 64 34 1689 32 885 -1 1619 -4 1631 -7z"
        />
  </g>
</svg>
